<svg width="32" height="32" xmlns="http://www.w3.org/2000/svg"><path d="M8 3h5.17c3.336 0 5.592.15 6.768.45 1.177.3 2.07.792 2.684 1.477.612.685.995 1.448 1.148 2.289.153.84.23 2.491.23 4.954v9.105c0 2.334-.112 3.895-.336 4.682-.225.787-.616 1.402-1.174 1.847-.558.444-1.247.754-2.067.931-.821.177-2.057.265-3.71.265H8V3zm7 4v17c.912 0 1.474-.194 1.684-.583.21-.388.316-1.444.316-3.168v-10.04c0-1.171-.035-1.921-.105-2.251-.07-.33-.23-.572-.481-.727C16.163 7.077 15.692 7 15 7z" fill-rule="evenodd"/></svg>