<?xml version="1.0" encoding="UTF-8"?>
<svg width="32px" height="32px" viewBox="0 0 32 32" version="1.1" xmlns="http://www.w3.org/2000/svg" xmlns:xlink="http://www.w3.org/1999/xlink">
    <g id="Artboard-Copy-5" stroke="none" stroke-width="1" fill="none" fill-rule="evenodd">
        <path d="M8,3 L13.1692308,3 C16.5059996,3 18.7623873,3.14988526 19.9384615,3.44966028 C21.1145358,3.74943531 22.0088858,4.24191545 22.6215385,4.9271155 C23.2341911,5.61231555 23.6170933,6.37512448 23.7702564,7.21556516 C23.9234196,8.05600585 24,9.70742026 24,12.1698579 L24,21.2754787 C24,23.6094414 23.8878644,25.169854 23.6635897,25.9567634 C23.4393151,26.7436729 23.0482079,27.3592731 22.4902564,27.8035825 C21.9323049,28.2478919 21.243081,28.5583685 20.4225641,28.7350216 C19.6020472,28.9116748 18.3658202,29 16.7138462,29 L8,29 L8,3 Z M15,7 L15,24 C15.9122853,24 16.4736832,23.8057922 16.6842105,23.4173709 C16.8947379,23.0289495 17,21.9727786 17,20.2488263 L17,10.2084507 C17,9.03786582 16.9649126,8.28763858 16.8947368,7.95774648 C16.8245611,7.62785438 16.6641617,7.38575977 16.4135338,7.2314554 C16.162906,7.07715103 15.6917328,7 15,7 Z" id="D-Copy" fill="#000000"></path>
    </g>
</svg>